<?xml version="1.0" encoding="utf-8"?>
<!-- Generator: Adobe Illustrator 19.0.0, SVG Export Plug-In . SVG Version: 6.00 Build 0)  -->
<svg version="1.1" id="layer" xmlns="http://www.w3.org/2000/svg" xmlns:xlink="http://www.w3.org/1999/xlink" x="0px" y="0px"
	 viewBox="-153 -46 652 652" style="enable-background:new -153 -46 652 652;" xml:space="preserve">
<style type="text/css">
	.st0{fill:#04FF8E;}
	.st1{fill:#8E2EFF;}
	.st2{fill:#00C5FF;}
	.st3{fill:#FFF152;}
	.st4{fill:#FF5B5B;}
	.st5{fill:#551C99;}
	.st6{fill:#999131;}
</style>
<path d="M-111.3,230.5h73.3v98.9h-73.3V230.5z"/>
<g>
	<path class="st0" d="M-126,226.9h14.7v106.2H-126V226.9z"/>
	<path class="st1" d="M-38.1,256.2h14.7v76.9h-14.7V256.2z"/>
	<path class="st2" d="M-126,329.5h102.6v14.7H-126V329.5z"/>
	<path class="st3" d="M-126,215.9h58.6v14.7H-126V215.9z"/>
	<path class="st4" d="M-38.1,245.2v-14.7h-14.7v-14.7h-14.7v44h44v-14.7"/>
	<path class="st5" d="M-38.1,274.5v-14.7h14.7"/>
</g>
<path class="st6" d="M-67.4,215.9v14.7H-82"/>
<path d="M90.5,259.9c-7.3-7-16.1-8.8-22.7-8.8c-16.1,0-26.7,9.5-26.7,29.3c0,12.8,6.6,28.6,26.7,28.6c5.1,0,13.6-1.1,19-5.1V291
	H61.5v-22h48.7v44.3c-6.2,12.8-23.4,19.4-42.9,19.4c-39.2,0-54.2-26.4-54.2-52.4s17.2-52.7,54.6-52.7c13.9,0,26,2.9,39.2,16.1
	L90.5,259.9z M123.8,330.2v-99.6h27.8v99.6H123.8z M197.4,303.1v26.7h-28.2v-99.3h48.4c26.7,0,39.9,16.8,39.9,36.3
	c0,20.5-13.2,36.3-39.9,36.3H197.4z M197.4,279.3h20.1c7.7,0,11.7-5.9,11.7-12.1c0-6.6-4-12.5-11.7-12.5h-20.1V279.3z M331.9,330.2
	v-37.7H296v37.7h-28.2v-99.6H296v37.7h35.9v-37.7h27.8v99.6H331.9z M420.5,264.6l21.6-34.1H474v1.1l-39.6,58.6v39.6h-28.2v-39.6
	l-37.7-58.6v-1.1h31.9L420.5,264.6z"/>
</svg>
